<?xml version="1.0" standalone="no"?>
<!DOCTYPE svg PUBLIC "-//W3C//DTD SVG 20010904//EN"
 "http://www.w3.org/TR/2001/REC-SVG-20010904/DTD/svg10.dtd">
<svg version="1.0" xmlns="http://www.w3.org/2000/svg"
 width="776.000000pt" height="776.000000pt" viewBox="0 0 776.000000 776.000000"
 preserveAspectRatio="xMidYMid meet">
<metadata>
Created by potrace 1.11, written by Peter Selinger 2001-2013
</metadata>
<g transform="translate(0.000000,776.000000) scale(0.100000,-0.100000)"
fill="#000000" stroke="none">
<path d="M3162 7685 c-18 -15 -54 -55 -80 -88 -49 -64 -212 -305 -212 -313 0
-9 -28 -34 -39 -34 -22 0 -81 68 -81 94 0 32 -30 94 -58 119 -19 18 -80 26
-100 13 -7 -4 -39 16 -74 46 -77 65 -149 108 -180 108 -35 -1 -99 -33 -133
-67 -41 -42 -158 -75 -237 -66 -49 5 -63 2 -100 -20 -24 -14 -52 -34 -62 -46
-16 -17 -31 -21 -83 -21 -115 0 -174 -44 -156 -117 7 -28 5 -47 -5 -73 -12
-29 -12 -43 -1 -90 16 -69 71 -207 111 -281 41 -74 35 -92 -55 -184 -71 -73
-73 -74 -114 -68 -36 5 -48 1 -86 -27 -31 -22 -51 -30 -65 -26 -29 10 -152
-18 -209 -47 -114 -58 -213 -165 -213 -231 0 -32 55 -160 81 -189 9 -9 22 -30
30 -45 8 -15 17 -29 20 -32 3 -3 36 -51 73 -108 l67 -104 -43 -66 c-23 -37
-66 -102 -95 -146 -29 -43 -53 -80 -53 -82 0 -2 -19 -32 -42 -67 -24 -34 -65
-97 -92 -140 -27 -42 -53 -77 -58 -77 -4 0 -8 -6 -8 -13 0 -8 -18 -39 -40 -71
-22 -31 -40 -59 -40 -62 0 -2 -24 -37 -53 -77 -29 -39 -75 -105 -102 -145 -54
-79 -100 -146 -140 -202 -99 -137 -107 -173 -56 -251 49 -75 160 -164 236
-189 22 -7 50 -16 63 -21 40 -16 105 -10 141 12 18 11 36 18 38 15 7 -7 -16
-63 -88 -211 -70 -144 -80 -190 -54 -239 17 -30 17 -42 7 -117 -15 -106 -15
-184 -1 -211 6 -12 16 -41 23 -66 15 -59 46 -82 120 -87 52 -3 59 -6 79 -36
25 -37 81 -79 106 -79 9 0 32 10 51 22 19 12 48 23 64 25 41 5 70 25 144 101
34 35 62 58 62 51 0 -7 -16 -45 -35 -86 -19 -41 -35 -78 -35 -84 0 -5 -9 -27
-19 -47 -11 -21 -25 -65 -32 -99 -16 -80 -5 -106 69 -160 53 -39 58 -46 80
-116 17 -56 30 -79 53 -96 49 -36 114 -27 139 19 9 16 19 19 58 16 l47 -4 2
-43 c3 -78 61 -105 166 -77 41 11 46 10 79 -15 28 -22 34 -32 30 -55 -3 -23 5
-39 37 -76 23 -26 41 -55 41 -64 0 -10 12 -35 26 -56 25 -36 27 -48 29 -160 1
-67 7 -134 13 -149 15 -36 80 -65 156 -71 44 -3 61 -8 72 -25 30 -43 100 -81
148 -81 24 0 57 -5 73 -12 15 -6 56 -14 91 -18 48 -6 67 -13 83 -31 37 -45 87
-109 91 -116 1 -5 34 -23 71 -42 37 -19 71 -40 75 -47 24 -43 159 -112 285
-146 26 -7 47 -16 47 -21 0 -4 -7 -24 -15 -44 -28 -67 -18 -108 41 -173 l24
-26 -20 -64 c-30 -98 -27 -117 24 -165 29 -28 68 -52 117 -70 41 -15 85 -36
99 -45 55 -38 111 -60 153 -60 l43 0 -4 -83 c-5 -104 10 -140 71 -168 23 -10
52 -19 65 -19 34 0 53 -13 119 -78 75 -76 115 -86 177 -46 74 49 101 68 130
94 39 34 178 213 261 335 37 55 70 102 72 105 3 3 23 -15 46 -40 160 -176 332
-344 452 -441 95 -77 239 -179 253 -179 6 0 12 -4 14 -9 2 -5 68 -40 148 -79
178 -87 285 -114 402 -100 40 5 88 18 106 28 18 11 39 20 46 20 25 0 64 40 70
73 4 24 15 37 40 51 35 19 46 39 46 88 0 56 24 120 52 140 16 11 35 32 43 48
12 24 21 28 71 32 75 6 96 30 93 102 -2 32 2 51 9 54 27 9 40 55 32 113 -11
81 -19 104 -72 227 -11 24 -17 46 -14 49 3 3 17 -4 33 -15 15 -10 73 -43 128
-72 55 -29 127 -71 160 -93 105 -71 167 -61 273 44 68 67 112 142 138 236 20
73 8 127 -40 181 -18 20 -43 52 -56 71 -35 50 -206 255 -251 300 -45 45 -119
132 -119 140 0 5 11 12 25 15 24 6 65 68 65 100 0 9 20 20 53 30 69 20 84 38
91 111 4 33 8 75 10 93 4 43 -14 119 -48 201 -14 36 -26 65 -26 66 0 2 19 5
42 9 67 11 102 33 192 121 93 92 146 159 146 184 0 9 23 44 51 76 122 143 114
177 -110 425 l-121 135 6 57 c8 74 -15 114 -105 186 -61 50 -164 142 -318 287
l-64 60 28 42 c29 43 83 107 190 225 130 143 138 156 137 212 0 54 -14 82
-100 204 -24 35 -44 66 -44 69 0 3 13 22 29 42 16 20 44 66 62 103 30 62 32
69 21 106 -7 24 -30 57 -55 81 -23 22 -79 76 -124 119 -121 117 -190 141 -254
88 -17 -14 -36 -26 -43 -26 -19 0 -48 29 -86 85 -30 45 -144 165 -157 165 -2
0 -25 18 -51 39 -102 85 -196 108 -259 64 -17 -13 -35 -23 -40 -23 -6 0 -40
38 -77 85 -104 132 -181 185 -264 185 -31 0 -45 7 -73 36 -18 19 -49 45 -68
56 -30 19 -33 24 -27 59 3 21 2 49 -3 62 -15 38 -70 96 -112 118 -27 14 -46
34 -64 68 -13 27 -29 52 -35 56 -18 11 -10 42 23 86 114 152 102 226 -54 332
-52 35 -93 74 -194 182 -34 36 -37 43 -31 81 12 93 -37 142 -123 123 -23 -5
-53 -17 -67 -26 -24 -15 -27 -15 -55 6 -16 12 -51 25 -77 28 -45 5 -50 3 -120
-51 -59 -46 -74 -53 -79 -40 -9 24 -8 99 2 172 l8 63 -41 42 c-37 38 -40 47
-39 92 1 68 -9 92 -44 111 -33 16 -89 11 -126 -12 -30 -19 -56 -18 -100 6 -59
31 -93 26 -155 -22 -53 -42 -138 -128 -138 -139 0 -14 -52 -41 -62 -31 -5 5
-13 39 -19 76 -10 73 -39 140 -64 150 -25 9 -74 7 -95 -4 -15 -8 -30 0 -80 38
-119 91 -148 106 -209 110 -51 4 -61 1 -89 -23z m2610 -5250 c166 -35 328
-147 428 -297 44 -66 45 -72 27 -106 -13 -22 -15 -20 -64 50 -123 176 -241
256 -434 298 -108 24 -296 -26 -394 -105 -50 -39 -156 -150 -179 -187 l-19
-30 -18 23 c-10 13 -19 27 -19 31 0 19 99 133 157 181 166 135 331 180 515
142z m18 -438 c75 -21 140 -59 206 -123 72 -69 91 -106 73 -141 -15 -27 -27
-29 -36 -5 -17 44 -129 154 -187 181 -69 34 -156 47 -216 33 -109 -25 -184
-78 -271 -190 l-26 -34 -12 30 c-16 38 0 72 62 129 125 115 269 157 407 120z
m-12 -467 c51 -27 73 -49 100 -96 51 -95 15 -229 -76 -286 -31 -19 -51 -22
-127 -23 -119 0 -167 26 -206 112 -34 74 -16 199 36 251 63 62 196 83 273 42z"/>
</g>
</svg>
